#!OML:ASF H:\Punching\Project 1\Capture day 1\Session 1\female.ASF
:FULLY-SPECIFIED
:DEGREES
2624
root 1.70676 14.936 2.78293 6.35976 -12.2117 5.98244
lowerback -3.46824 -0.583094 3.27516
upperback -6.23103 -0.906333 -2.48341
thorax -4.60653 -0.682539 -4.41315
lowerneck -9.29916 6.87215 9.08617
upperneck 40.6994 12.4145 -10.3798
head 18.1104 5.16537 -4.25772
rclavicle 1.66482e-014 2.62396e-014
rhumerus 23.2636 26.4129 -59.1573
rradius 125.239
rwrist -13.3
rhand -30.2689 10.5022
rfingers 7.12502
rthumb -3.57712 -19.4476
lclavicle 1.66482e-014 2.62396e-014
lhumerus -2.61426 -14.9006 61.6305
lradius 140.731
lwrist 4.81293
lhand -22.8996 5.20837
lfingers 7.12502
lthumb 3.54006 35.1587
rfemur -38.0531 -7.38672 24.4426
rtibia 52.6411
rfoot -21.9615 -10.1313
rtoes 17.4495
lfemur -20.9899 0.118069 -18.7947
ltibia 81.7304
lfoot -164.797 190.951
ltoes -4.76201
2625
root 1.71564 14.914 2.73993 6.83396 -11.3476 6.00874
lowerback -3.56712 -0.747277 2.98779
upperback -6.37977 -1.12329 -2.36759
thorax -4.71866 -0.779482 -4.12815
lowerneck -9.52533 6.76672 9.0081
upperneck 40.5944 12.1947 -10.2577
head 18.0452 5.07437 -4.21288
rclavicle 1.66979e-014 1.94809e-014
rhumerus 23.2932 26.1353 -58.9491
rradius 125.323
rwrist -13.4365
rhand -30.2661 10.4759
rfingers 7.12502
rthumb -3.57444 -19.4738
lclavicle 1.66979e-014 1.94809e-014
lhumerus -2.37268 -14.8885 61.724
lradius 140.669
lwrist 4.96566
lhand -22.79 4.87343
lfingers 7.12502
lthumb 3.6459 34.822
rfemur -38.9869 -7.6278 24.4389
rtibia 53.2034
rfoot -22.0891 -10.5852
rtoes 17.442
lfemur -19.1005 0.180905 -18.3208
ltibia 79.1837
lfoot -166.519 192.272
ltoes -4.25177
2626
root 1.72563 14.8919 2.69563 7.31175 -10.4619 6.03758
lowerback -3.65954 -0.912676 2.71183
upperback -6.52757 -1.34129 -2.25053
thorax -4.83118 -0.876579 -3.84857
lowerneck -9.75506 6.65742 8.93735
upperneck 40.4781 11.9761 -10.1592
head 17.9791 4.98235 -4.18019
rclavicle -1.86858e-014 -9.14409e-015
rhumerus 23.3346 25.8424 -58.7057
rradius 125.427
rwrist -13.5947
rhand -30.2491 10.4416
rfingers 7.12502
rthumb -3.558 -19.5085
lclavicle -1.86858e-014 -9.14409e-015
lhumerus -2.11723 -14.8855 61.8452
lradius 140.578
lwrist 5.10893
lhand -22.7024 4.50444
lfingers 7.12502
lthumb 3.73051 34.4515
rfemur -39.9242 -7.90262 24.4366
rtibia 53.7553
rfoot -22.2133 -11.0359
rtoes 17.4431
lfemur -17.3085 0.257889 -17.817
ltibia 76.6063
lfoot -168.13 193.371
ltoes -3.90996
2627
root 1.73823 14.8632 2.64893 7.7918 -9.55414 6.06274
lowerback -3.74564 -1.07863 2.45618
upperback -6.67408 -1.55935 -2.12758
thorax -4.9438 -0.973663 -3.5745
lowerneck -9.98284 6.54436 8.86296
upperneck 40.3501 11.7611 -10.0819
head 17.9094 4.88903 -4.1561
rclavicle 3.23025e-015 4.77083e-015
rhumerus 23.3915 25.5362 -58.4234
rradius 125.544
rwrist -13.7607
rhand -30.2272 10.4014
rfingers 7.12502
rthumb -3.53684 -19.549
lclavicle 3.23025e-015 4.77083e-015
lhumerus -1.85245 -14.9108 61.9999
lradius 140.491
lwrist 5.23969
lhand -22.6227 4.29984
lfingers 7.12502
lthumb 3.80749 34.2456
rfemur -40.8965 -8.22711 24.4445
rtibia 54.3208
rfoot -22.3237 -11.4639
rtoes 17.4559
lfemur -15.6313 0.336589 -17.2831
ltibia 74.0326
lfoot -169.597 194.255
ltoes -3.77485
2628
root 1.75101 14.8423 2.60264 8.26849 -8.62443 6.07171
lowerback -3.82092 -1.24317 2.23532
upperback -6.81769 -1.77472 -1.99505
thorax -5.05771 -1.07002 -3.31009
lowerneck -10.2058 6.4254 8.7782
upperneck 40.2083 11.5454 -10.0195
head 17.8321 4.79248 -4.137
rclavicle 2.55438e-014 1.31198e-014
rhumerus 23.4631 25.2135 -58.1054
rradius 125.667
rwrist -13.9203
rhand -30.2044 10.3695
rfingers 7.12502
rthumb -3.51487 -19.5812
lclavicle 2.55438e-014 1.31198e-014
lhumerus -1.58773 -14.9814 62.1931
lradius 140.424
lwrist 5.32476
lhand -22.546 4.30929
lfingers 7.12502
lthumb 3.88154 34.2537
rfemur -41.8174 -8.6104 24.4733
rtibia 54.8408
rfoot -22.4373 -11.8579
rtoes 17.4703
lfemur -14.0064 0.405208 -16.7116
ltibia 71.3911
lfoot -170.908 194.96
ltoes -3.83479
2629
root 1.76561 14.8209 2.55532 8.73534 -7.66591 6.05221
lowerback -3.87968 -1.40727 2.06158
upperback -6.95439 -1.9885 -1.84766
thorax -5.17252 -1.16667 -3.0565
lowerneck -10.4291 6.30051 8.67551
upperneck 40.0545 11.3291 -9.9668
head 17.7483 4.6919 -4.11899
rclavicle -8.54774e-015 -1.94809e-014
rhumerus 23.5548 24.8684 -57.7482
rradius 125.791
rwrist -14.0648
rhand -30.1863 10.3515
rfingers 7.12502
rthumb -3.49741 -19.5995
lclavicle -8.54774e-015 -1.94809e-014
lhumerus -1.32284 -15.0961 62.4278
lradius 140.365
lwrist 5.36271
lhand -22.4954 4.44871
lfingers 7.12502
lthumb 3.93041 34.3922
rfemur -42.7188 -9.0613 24.5392
rtibia 55.3454
rfoot -22.5448 -12.2124
rtoes 17.4723
lfemur -12.4526 0.45227 -16.0936
ltibia 68.7299
lfoot -172.107 195.538
ltoes -4.04601
2630
root 1.78209 14.7991 2.50734 9.18522 -6.68183 5.99283
lowerback -3.92189 -1.56905 1.94726
upperback -7.08295 -2.1981 -1.68198
thorax -5.28752 -1.26298 -2.81689
lowerneck -10.6479 6.16936 8.54465
upperneck 39.891 11.1098 -9.91129
head 17.6557 4.58648 -4.09481
rclavicle 7.20594e-015 2.5842e-014
rhumerus 23.6623 24.5015 -57.3582
rradius 125.915
rwrist -14.1921
rhand -30.1652 10.3305
rfingers 7.12502
rthumb -3.47701 -19.6208
lclavicle 7.20594e-015 2.5842e-014
lhumerus -1.07278 -15.2645 62.7086
lradius 140.338
lwrist 5.34904
lhand -22.4535 4.75132
lfingers 7.12502
lthumb 3.97081 34.6941
rfemur -43.5837 -9.57313 24.6535
rtibia 55.8135
rfoot -22.6315 -12.5293
rtoes 17.452
lfemur -10.951 0.47592 -15.4222
ltibia 66.0407
lfoot -173.232 196.03
ltoes -4.36458
2631
root 1.80062 14.7766 2.45835 9.61223 -5.67098 5.90371
lowerback -3.94592 -1.72825 1.88198
upperback -7.19907 -2.40322 -1.50222
thorax -5.39915 -1.35844 -2.58965
lowerneck -10.8703 6.03117 8.3936
upperneck 39.7181 10.8855 -9.85683
head 17.5578 4.47587 -4.06803
rclavicle 4.07509e-014 1.43125e-014
rhumerus 23.7909 24.1015 -56.9353
rradius 126.03
rwrist -14.3067
rhand -30.1608 10.3372
rfingers 7.12502
rthumb -3.47271 -19.6143
lclavicle 4.07509e-014 1.43125e-014
lhumerus -0.817102 -15.4563 63.0287
lradius 140.302
lwrist 5.30404
lhand -22.4283 5.00546
lfingers 7.12502
lthumb 3.99517 34.9477
rfemur -44.4213 -10.147 24.8058
rtibia 56.2709
rfoot -22.7116 -12.8135
rtoes 17.4192
lfemur -9.50164 0.46369 -14.7164
ltibia 63.3465
lfoot -174.348 196.467
ltoes -4.75124
2632
root 1.82111 14.7536 2.40816 10.0164 -4.64229 5.78397
lowerback -3.95322 -1.88427 1.86186
upperback -7.30327 -2.60288 -1.30537
thorax -5.50713 -1.45243 -2.36938
lowerneck -11.098 5.89052 8.2276
upperneck 39.5383 10.6642 -9.80778
head 17.4589 4.36353 -4.04026
rclavicle 1.54058e-015 7.15625e-015
rhumerus 23.9489 23.6724 -56.4797
rradius 126.134
rwrist -14.413
rhand -30.1567 10.3334
rfingers 7.12502
rthumb -3.4688 -19.6182
lclavicle 1.54058e-015 7.15625e-015
lhumerus -0.555851 -15.6572 63.3844
lradius 140.246
lwrist 5.23038
lhand -22.4222 5.14889
lfingers 7.12502
lthumb 4.00107 35.0911
rfemur -45.2357 -10.7707 24.9987
rtibia 56.7166
rfoot -22.7789 -13.0743
rtoes 17.3653
lfemur -8.10604 0.416428 -13.9827
ltibia 60.6567
lfoot -175.489 196.832
ltoes -5.24943
2633
root 1.84367 14.7302 2.3565 10.3998 -3.60628 5.66091
lowerback -3.94746 -2.03478 1.85848
upperback -7.3975 -2.79434 -1.10112
thorax -5.61058 -1.54247 -2.15026
lowerneck -11.3357 5.74593 8.05329
upperneck 39.3559 10.4419 -9.76433
head 17.3627 4.24868 -4.01369
rclavicle 1.89342e-014 2.10712e-014
rhumerus 24.1283 23.2096 -55.9978
rradius 126.226
rwrist -14.5141
rhand -30.1688 10.3479
rfingers 7.12502
rthumb -3.48047 -19.6034
lclavicle 1.89342e-014 2.10712e-014
lhumerus -0.282463 -15.8746 63.7693
lradius 140.161
lwrist 5.11368
lhand -22.4532 5.1493
lfingers 7.12502
lthumb 3.97117 35.092
rfemur -46.0406 -11.4375 25.2029
rtibia 57.1568
rfoot -22.8316 -13.316
rtoes 17.2972
lfemur -6.77294 0.325206 -13.264
ltibia 57.98
lfoot -176.649 197.108
ltoes -5.92134
2634
root 1.86818 14.7067 2.3033 10.7639 -2.57611 5.5477
lowerback -3.92982 -2.177 1.8558
upperback -7.4845 -2.974 -0.89393
thorax -5.71105 -1.62616 -1.92803
lowerneck -11.5759 5.5971 7.87105
upperneck 39.1656 10.2158 -9.72129
head 17.2633 4.1311 -3.98635
rclavicle 1.07841e-014 -1.27222e-014
rhumerus 24.3229 22.7156 -55.4964
rradius 126.306
rwrist -14.6117
rhand -30.1795 10.3444
rfingers 7.12502
rthumb -3.49075 -19.6068
lclavicle 1.07841e-014 -1.27222e-014
lhumerus -0.00371493 -16.1102 64.1839
lradius 140.051
lwrist 4.95472
lhand -22.5062 5.03555
lfingers 7.12502
lthumb 3.91999 34.9792
rfemur -46.8408 -12.129 25.4013
rtibia 57.5927
rfoot -22.8675 -13.5466
rtoes 17.2164
lfemur -5.50646 0.177328 -12.5895
ltibia 55.3256
lfoot -177.81 197.282
ltoes -6.85132
